<svg version="1.2" xmlns="http://www.w3.org/2000/svg" viewBox="0 0 1920 1080" width="1920" height="1080">
	<title>1</title>
	<style>
		tspan { white-space:pre } 
		.s0 { fill: #4875c2 } 
		.s1 { fill: #6c94d4 } 
		.s2 { fill: #507fcd } 
	</style>
	<g id="폴더 2">
		<path id="단색 채우기 1 copy" class="s0" d="m2543.5 1533.1l-1344.4 36.1 343.7-1353.2 785.5-240.5zm264.1-1274.1l-1608.5 1310.2 343.6-1353.2 785.5-240.5z"/>
		<path id="단색 채우기 2 copy 2" class="s1" d="m1047-84l-676 730 48 532 951.2-5.5 674.5-1296.4c-1.9 0-792.7 9.9-792.7 9.9zm0 0l-676 730 48 532 474 14 842.8-1367.7c-1.8 0-483.8 61.7-483.8 61.7zm0 0l-676 730 48 532 474 14 678.1-1418.7c-1.9 0-319.1 112.7-319.1 112.7z"/>
		<path id="단색 채우기 2 copy" class="s2" d="m526-115l-676 730 48 532 474 14 977.8-1262.7c-1.9 0-618.8-43.3-618.8-43.3zm0 0l-676 730 48 532 474 14 942.7-1264c-1.9 0-583.7-42-583.7-42zm0 0l-676 730 48 532 474 14 942.7-1264c-1.9 0-583.7-42-583.7-42z"/>
		<path id="단색 채우기 1" class="s0" d="m580-21l-636 726-41-750 436-80zm0 0l-636 726-41-750 436-80z"/>
	</g>
</svg>