<svg width="361" height="50" viewBox="0 0 361 50" fill="none" xmlns="http://www.w3.org/2000/svg">
<path d="M56.2954 38.1L56.1954 38.05H55.1954C55.162 38.05 55.0954 38.05 54.9954 38.05C54.9287 38.05 54.8454 38.0333 54.7454 38C54.6454 37.9333 54.4954 37.8833 54.2954 37.85L53.1454 38.05C52.912 37.95 52.612 37.85 52.2454 37.75L51.2454 37.95C50.9787 37.8833 50.7954 37.8167 50.6954 37.75L50.6454 37.6L50.9954 31.15C51.2954 30.5833 51.4454 30.2333 51.4454 30.1C51.4454 30.0333 51.4454 29.9667 51.4454 29.9C51.4454 29.8333 51.4287 29.75 51.3954 29.65C51.3287 29.4167 51.312 29.25 51.3454 29.15C51.3454 28.9833 51.3954 28.7833 51.4954 28.55L51.6454 28.15L51.3454 27.1L51.4954 26.65C51.5287 26.5833 51.562 26.4833 51.5954 26.35C51.6287 26.2167 51.662 26.05 51.6954 25.85L52.0954 25.25L51.5954 24.9L51.6954 24.5V24.45C51.6954 24.3167 51.6287 24.1833 51.4954 24.05L51.5454 23.85C51.612 23.8167 51.6954 23.7833 51.7954 23.75C51.8954 23.6833 52.012 23.6 52.1454 23.5L52.2454 23.45C51.8787 23.15 51.6954 22.95 51.6954 22.85L51.8954 22.5C51.8954 22.4667 51.7954 22.4 51.5954 22.3V21.7C51.5954 21.6333 51.5954 21.5667 51.5954 21.5C51.6287 21.4333 51.662 21.35 51.6954 21.25C51.762 21.15 51.8787 21.1 52.0454 21.1L52.1454 21C51.8454 19.9 51.6954 19.2667 51.6954 19.1L51.7954 18.8L51.8954 18.45L51.9454 17.7C51.9787 17.6667 52.012 17.6333 52.0454 17.6C52.112 17.5333 52.1954 17.4667 52.2954 17.4L51.8954 16.95C51.862 16.7833 51.862 16.6333 51.8954 16.5C51.7954 16 51.7454 15.6333 51.7454 15.4C51.7454 15.3 51.7787 15.2167 51.8454 15.15C51.8787 15.15 51.9287 15.1833 51.9954 15.25C52.0287 15.1167 52.0454 15 52.0454 14.9C52.0787 14.8 52.0954 14.7333 52.0954 14.7C52.062 14.5333 52.0454 14.4333 52.0454 14.4C52.0454 14.3333 52.0287 14.3333 51.9954 14.4L52.1954 13.05C52.2287 12.9833 52.262 12.9167 52.2954 12.85C52.3287 12.7833 52.362 12.7167 52.3954 12.65L52.2454 12.25C52.112 12.0167 52.0454 11.8833 52.0454 11.85C52.0454 11.8167 52.1287 11.6 52.2954 11.2L52.7454 10.95C52.6454 10.85 52.4954 10.8 52.2954 10.8C52.2954 10.7 52.2787 10.6 52.2454 10.5C52.2454 10.4 52.2454 10.3 52.2454 10.2C52.2454 9.63333 52.262 9.23333 52.2954 9C52.3287 8.73333 52.362 8.65 52.3954 8.75L52.2954 8.5C52.262 8.43333 52.2454 8.35 52.2454 8.25C52.2454 7.91667 52.5454 7.78333 53.1454 7.85L53.4454 7.95C53.612 8.05 53.712 8.1 53.7454 8.1L53.9454 8C54.012 7.96667 54.0954 7.95 54.1954 7.95C54.2954 8.05 54.3954 8.13333 54.4954 8.2C54.8954 8.36667 55.162 8.45 55.2954 8.45C55.362 8.45 55.4287 8.36667 55.4954 8.2C55.6287 8.16667 55.7454 8.15 55.8454 8.15C55.9454 8.11666 56.062 8.11666 56.1954 8.15C56.262 8.15 56.412 8.3 56.6454 8.6C56.8454 8.93333 56.962 9.1 56.9954 9.1C56.9954 9.1 57.1787 8.96667 57.5454 8.7C57.8454 8.43333 58.012 8.31666 58.0454 8.35L58.3954 8.4C58.4287 8.4 58.4954 8.35 58.5954 8.25C58.7287 8.18333 58.812 8.15 58.8454 8.15C58.9787 8.15 59.062 8.25 59.0954 8.45C59.1287 8.65 59.2954 8.76666 59.5954 8.8H59.7454C59.812 8.66667 59.8454 8.56667 59.8454 8.5H60.0454L61.4954 8.8C61.662 8.8 61.762 8.86666 61.7954 9L61.9454 9.35C62.412 9.08333 62.612 8.95 62.5454 8.95C62.6454 9.01666 62.812 9.13333 63.0454 9.3L63.6454 9.55C63.7787 9.65 63.8454 9.76666 63.8454 9.9C63.8454 10 63.8287 10.1 63.7954 10.2L63.6954 10.45C63.6954 10.65 63.962 10.7333 64.4954 10.7H65.1454C65.1454 10.7333 65.1454 10.8 65.1454 10.9C65.1787 10.9667 65.212 11.05 65.2454 11.15C65.312 11.1833 65.362 11.2333 65.3954 11.3C65.462 11.3667 65.5287 11.4333 65.5954 11.5C65.8954 11.9 66.0454 12.15 66.0454 12.25C66.0454 12.35 66.012 12.4333 65.9454 12.5L65.9954 12.6C66.0287 12.6667 66.0454 12.7333 66.0454 12.8L65.6954 13.3C65.6954 13.5667 65.962 13.7667 66.4954 13.9L66.4454 14C66.512 14.2 66.5454 14.4167 66.5454 14.65L66.6954 14.85V15.2L66.7954 15.4L66.7454 16.75C66.612 16.8833 66.4954 17.05 66.3954 17.25C66.3954 17.2833 66.4287 17.3833 66.4954 17.55C66.662 17.7833 66.712 18.0833 66.6454 18.45L66.3454 19.4C66.3454 19.4667 66.3454 19.5667 66.3454 19.7C66.3454 19.8333 66.3287 19.9833 66.2954 20.15C66.2287 20.4167 66.112 20.8 65.9454 21.3L65.6454 21.6C65.712 21.9333 65.6954 22.15 65.5954 22.25C65.4954 22.3833 65.4454 22.4667 65.4454 22.5C65.412 22.7 65.4287 22.9 65.4954 23.1L64.9454 23.7C64.9454 23.7667 64.9287 23.8333 64.8954 23.9C64.8287 23.9 64.6954 23.9333 64.4954 24C64.4287 24.0667 64.362 24.2833 64.2954 24.65C64.262 24.7833 64.1287 24.9 63.8954 25C63.762 25.0333 63.662 25.0833 63.5954 25.15C63.562 25.1833 63.5287 25.2167 63.4954 25.25C63.462 25.3167 63.362 25.5 63.1954 25.8C63.162 25.8333 62.662 26.05 61.6954 26.45L61.0454 26.5L60.1954 26.75C60.1287 26.7167 59.9954 26.6667 59.7954 26.6L59.4954 26.65C59.3954 26.6833 59.312 26.7 59.2454 26.7L58.5954 26.5L57.8454 26.35H57.5454C57.2787 26.35 57.012 26.4833 56.7454 26.75L56.7954 27.8C56.762 27.8667 56.662 27.9833 56.4954 28.15C56.562 28.3833 56.5954 28.6 56.5954 28.8C56.5954 28.9667 56.5954 29.1167 56.5954 29.25C56.5954 29.4833 56.5787 29.6333 56.5454 29.7L56.6454 30.5C56.512 30.6667 56.4454 30.7833 56.4454 30.85L56.5954 32.05C56.3954 32.1833 56.2954 32.3833 56.2954 32.65C56.2954 32.9167 56.3287 33.0667 56.3954 33.1L56.4954 33.15C56.3954 35.35 56.2454 36.7667 56.0454 37.4C56.112 37.5333 56.1954 37.6667 56.2954 37.8V38.1ZM53.8454 9.7C53.9454 9.6 53.9787 9.53333 53.9454 9.5L53.6454 9.45L53.5954 9.6L53.8454 9.7ZM53.3954 10.15L53.4954 10.05C53.4954 9.88333 53.4454 9.68333 53.3454 9.45C53.212 9.58333 53.1454 9.71667 53.1454 9.85L53.1954 10.15H53.3954ZM57.9454 10C58.0454 10.0333 58.1454 9.98333 58.2454 9.85C58.1787 9.78333 58.0954 9.76667 57.9954 9.8C57.962 9.83333 57.9454 9.9 57.9454 10ZM61.7954 11.35C61.8287 11.2833 61.812 11.2167 61.7454 11.15C61.6787 11.0833 61.612 11.0833 61.5454 11.15C61.5454 11.2833 61.6287 11.35 61.7954 11.35ZM57.3954 12.55L57.4454 12.45C57.412 12.35 57.3454 12.3 57.2454 12.3C57.1787 12.4333 57.1287 12.5167 57.0954 12.55H57.3954ZM56.7954 21.85C56.7954 21.85 56.8954 21.8167 57.0954 21.75L57.2954 21.65C57.362 21.6833 57.4954 21.7 57.6954 21.7L58.1954 21.65C58.3954 21.65 58.512 21.7 58.5454 21.8C58.7454 21.7333 58.8787 21.7 58.9454 21.7L59.3454 21.8C59.412 21.8 59.512 21.75 59.6454 21.65C59.7454 21.55 59.812 21.5 59.8454 21.5C59.8454 21.5 59.8954 21.5333 59.9954 21.6C60.062 21.6 60.1954 21.5 60.3954 21.3C60.5954 21.0333 60.7454 20.8833 60.8454 20.85C60.9787 20.15 61.0287 19.7833 60.9954 19.75L61.0954 18.9C61.1954 18.7 61.2954 18.45 61.3954 18.15L61.3454 17.5C61.312 17.2667 61.2787 17.0833 61.2454 16.95C61.2454 16.7833 61.2454 16.65 61.2454 16.55C61.412 16.45 61.562 16.3 61.6954 16.1C61.6954 15.9667 61.5954 15.8333 61.3954 15.7L60.9954 15.4C61.0287 15.3 61.0454 15.1833 61.0454 15.05C61.0454 14.7167 60.8954 14.5 60.5954 14.4C60.6287 14.4 60.6454 14.3833 60.6454 14.35C60.6454 14.25 60.512 14.0667 60.2454 13.8L59.7954 13.3C59.7287 13.3 59.6787 13.2833 59.6454 13.25C59.5454 13.35 59.4954 13.45 59.4954 13.55H59.0454C58.9454 13.5167 58.812 13.5 58.6454 13.5C57.8454 13.5 57.4454 13.65 57.4454 13.95L57.6454 14.35C57.6454 14.4167 57.5287 14.55 57.2954 14.75C57.4954 15.0833 57.5954 15.3333 57.5954 15.5C57.562 15.8333 57.3787 16.0167 57.0454 16.05C57.112 16.25 57.1954 16.4 57.2954 16.5C57.3287 16.6333 57.3454 16.8167 57.3454 17.05C57.3454 17.25 57.3454 17.4833 57.3454 17.75L57.2454 17.9V18.4L57.2954 18.6C57.3287 18.7 57.3454 18.8167 57.3454 18.95C57.3454 19.0167 57.2954 19.0333 57.1954 19C57.362 19.1667 57.3287 19.3333 57.0954 19.5L57.2454 19.8C56.9787 20 56.8454 20.15 56.8454 20.25L56.9454 20.45L57.0954 20.8C56.7954 21.1333 56.6454 21.3833 56.6454 21.55L56.5954 21.75L56.7954 21.85ZM52.5954 14.3C52.6954 14.3 52.7454 14.2 52.7454 14C52.6787 14 52.612 14.0333 52.5454 14.1C52.512 14.1333 52.5287 14.2 52.5954 14.3ZM63.9954 15.05C64.0287 15.0167 64.0454 14.9667 64.0454 14.9C64.0454 14.8 63.9787 14.75 63.8454 14.75C63.812 14.85 63.862 14.95 63.9954 15.05ZM54.0954 15.8C54.1954 15.7333 54.2454 15.6333 54.2454 15.5C54.1787 15.4667 54.112 15.4833 54.0454 15.55C54.012 15.5833 54.0287 15.6667 54.0954 15.8ZM65.1454 16L65.2454 15.95C65.2787 15.95 65.312 15.9333 65.3454 15.9L65.2454 15.75C65.212 15.7833 65.1954 15.8167 65.1954 15.85C65.1954 15.8833 65.1787 15.9333 65.1454 16ZM64.2954 17.05C64.3287 17.0167 64.412 16.9667 64.5454 16.9C64.512 16.8667 64.4287 16.8667 64.2954 16.9V17.05ZM65.7454 18.7L65.8454 18.55C65.812 18.5167 65.7954 18.4167 65.7954 18.25C65.6954 18.05 65.5287 17.95 65.2954 17.95H65.1954C65.062 17.95 64.9287 18.0167 64.7954 18.15V18.25C65.0287 18.2833 65.3454 18.4333 65.7454 18.7ZM52.9954 22.25C53.0287 22.1833 53.012 22.1167 52.9454 22.05C52.912 21.9833 52.8454 22 52.7454 22.1C52.7454 22.2 52.8287 22.25 52.9954 22.25ZM56.8454 22.8C56.9454 22.8333 57.0287 22.8167 57.0954 22.75C57.1287 22.7167 57.112 22.6333 57.0454 22.5C56.9787 22.5 56.912 22.6 56.8454 22.8ZM63.3454 22.8C63.4454 22.8333 63.5454 22.7833 63.6454 22.65C63.612 22.6167 63.562 22.6 63.4954 22.6C63.3954 22.6 63.3454 22.6667 63.3454 22.8ZM58.8454 23.35L58.7454 23.2L58.6954 23.25L58.7454 23.35H58.8454ZM59.6454 24.05L59.6954 23.8L59.5954 23.7L59.3454 23.65L59.1954 23.8C59.2287 23.8333 59.2454 23.8833 59.2454 23.95L59.6454 24.05ZM54.7454 25.55C54.812 25.55 54.862 25.5333 54.8954 25.5V25.25L54.5954 25.1C54.6954 25.0667 54.6954 24.9 54.5954 24.6C54.6287 24.5333 54.6454 24.4 54.6454 24.2L53.9454 24.4V24.65C53.912 24.7167 54.012 24.8833 54.2454 25.15C54.512 25.4167 54.6787 25.55 54.7454 25.55ZM59.9954 25.6L60.1454 25.4L59.8954 25.35L59.7954 25.55C59.8287 25.5833 59.8954 25.6 59.9954 25.6ZM60.6454 25.55L60.7954 25.35H60.4454L60.6454 25.55ZM58.0454 25.9C58.1787 25.9333 58.2787 25.9167 58.3454 25.85L58.2454 25.75C58.0787 25.8167 58.012 25.8667 58.0454 25.9ZM54.5454 29.8L54.3954 29.65C54.3287 29.65 54.2787 29.6667 54.2454 29.7L54.5454 29.8ZM54.5454 30.6C54.5787 30.5333 54.562 30.4667 54.4954 30.4C54.462 30.3667 54.3787 30.3833 54.2454 30.45C54.2454 30.55 54.3454 30.6 54.5454 30.6ZM55.7454 30.65C55.7787 30.6167 55.7954 30.5333 55.7954 30.4H55.5954C55.6287 30.4333 55.6787 30.5167 55.7454 30.65ZM52.4954 33.85C52.5287 33.8167 52.562 33.7833 52.5954 33.75C52.662 33.7167 52.712 33.6833 52.7454 33.65L52.4454 33.5L52.3454 33.6C52.412 33.7333 52.462 33.8167 52.4954 33.85ZM51.4954 33.8C51.562 33.8667 51.6287 33.8667 51.6954 33.8L51.6454 33.65C51.612 33.65 51.562 33.7 51.4954 33.8ZM54.2954 36.7C54.3287 36.6333 54.312 36.5667 54.2454 36.5C54.212 36.4667 54.1287 36.4833 53.9954 36.55C53.9954 36.65 54.0954 36.7 54.2954 36.7ZM73.1875 38.65C73.1209 38.65 73.1042 38.65 73.1375 38.65C73.1042 38.65 73.0375 38.6167 72.9375 38.55L72.6875 38.45C72.6209 38.4833 72.5375 38.5 72.4375 38.5C72.3709 38.5 72.2875 38.5167 72.1875 38.55L71.4875 38.15C71.3875 37.9167 71.2542 37.8 71.0875 37.8C71.0542 37.7667 71.0209 37.7667 70.9875 37.8C70.9542 37.8333 70.8875 37.85 70.7875 37.85C70.7875 37.85 70.6209 37.7167 70.2875 37.45L69.8875 37.3C69.7875 37.2 69.6709 37.0833 69.5375 36.95C69.4375 36.8167 69.3042 36.6667 69.1375 36.5L68.7375 36.2V36.1C68.7375 35.9667 68.6542 35.7667 68.4875 35.5C68.3209 35.3333 68.1875 35.2 68.0875 35.1C68.0209 34.9667 67.9709 34.8833 67.9375 34.85V34.25C68.1042 34.35 68.2042 34.3333 68.2375 34.2C68.3042 34.1 68.2375 34 68.0375 33.9C67.9042 33.8 67.8375 33.7167 67.8375 33.65V33.05C67.8375 32.95 67.8375 32.85 67.8375 32.75C67.8375 32.65 67.8209 32.55 67.7875 32.45C67.7542 32.2833 67.7209 32.1333 67.6875 32C67.6875 31.8333 67.7042 31.6833 67.7375 31.55L67.8375 31.05C67.8042 30.85 67.7875 30.65 67.7875 30.45C67.7875 30.2167 67.7875 29.9833 67.7875 29.75C67.7875 29.6167 67.8375 29.45 67.9375 29.25L68.0875 28.85C68.0542 28.5833 68.0209 28.3 67.9875 28C67.9542 27.6667 67.9209 27.3333 67.8875 27C67.8875 26.9 68.0209 26.5833 68.2875 26.05C68.3542 26.0167 68.4209 25.9833 68.4875 25.95C68.5542 25.9167 68.6209 25.8667 68.6875 25.8C68.6875 25.7667 68.5375 25.65 68.2375 25.45L68.0875 24.4C68.0875 24.2333 68.1542 24.1333 68.2875 24.1C68.3875 24.0333 68.4209 23.9167 68.3875 23.75L69.0375 23.3C69.0042 23.1667 68.8875 23.0833 68.6875 23.05C68.6542 23.05 68.5375 23.0833 68.3375 23.15C68.2375 23.0833 68.1875 23.0167 68.1875 22.95C68.1875 22.75 68.2875 22.5833 68.4875 22.45C68.6875 22.2833 68.7875 22.1833 68.7875 22.15L68.5375 21.3C68.5375 21.3 68.6709 21.0667 68.9375 20.6C69.1709 20.5667 69.2875 20.5 69.2875 20.4C69.2875 20.3333 69.2375 20.25 69.1375 20.15C69.0042 20.05 68.9375 19.9667 68.9375 19.9C68.9375 19.8667 68.9709 19.8167 69.0375 19.75C69.1375 19.55 69.2375 19.1833 69.3375 18.65L69.6375 18.35L69.7875 17.85C69.9875 17.7833 70.2209 17.6833 70.4875 17.55L71.1375 16.75C71.4709 16.3167 71.7542 16.1167 71.9875 16.15L72.1375 16.2C72.1375 16.1667 72.2709 16.1167 72.5375 16.05C73.3375 15.7833 73.7875 15.6667 73.8875 15.7L74.1375 15.75C74.3375 15.6167 74.4875 15.5 74.5875 15.4L74.8375 15.45C74.9042 15.45 74.9542 15.4667 74.9875 15.5C75.0209 15.5333 75.0542 15.55 75.0875 15.55L75.4875 15.5L75.9375 15.9C75.9375 15.9 76.0375 15.8667 76.2375 15.8L76.4875 15.7C76.6209 15.7667 76.7709 15.8333 76.9375 15.9C77.1042 15.9667 77.2709 16.0333 77.4375 16.1C77.6042 16.0333 77.8375 16.0333 78.1375 16.1L78.0875 16.35V16.4C78.0875 16.6 78.2709 16.7 78.6375 16.7H79.0375C79.0375 16.7 79.2542 17.1 79.6875 17.9L79.9875 17.8C80.1209 17.8 80.2042 17.85 80.2375 17.95L80.7875 19.85C80.7542 19.9167 80.7375 20.0333 80.7375 20.2C80.7375 20.3333 80.7375 20.4833 80.7375 20.65L80.8875 21C80.9542 21.2 80.9876 21.3 80.9876 21.3L80.8875 21.45C80.8542 21.4833 80.8375 21.5333 80.8375 21.6V22.35C80.8042 22.3833 80.7709 22.45 80.7375 22.55C80.7042 22.6167 80.6709 22.7167 80.6376 22.85C80.4375 22.8833 80.3375 22.95 80.3375 23.05C80.3375 23.15 80.4875 23.3333 80.7875 23.6C81.0542 23.8667 81.1875 24.0333 81.1875 24.1C81.1875 24.1667 81.1042 24.2 80.9375 24.2L80.7875 24.9C80.7542 24.9333 80.7042 25.0333 80.6376 25.2C80.6376 25.4 80.7375 25.8333 80.9375 26.5C80.8042 26.5667 80.7042 26.65 80.6376 26.75C80.6376 26.75 80.6376 26.8833 80.6376 27.15L80.6875 27.65C80.6875 27.6833 80.6875 27.75 80.6875 27.85C80.6875 27.9167 80.6709 28.0167 80.6376 28.15L80.5875 28.65H80.3375C80.0709 28.65 79.8542 28.5167 79.6875 28.25C79.5542 28.0167 79.4375 27.9 79.3375 27.9C79.3042 27.9 79.2042 28 79.0375 28.2C78.8375 28.4 78.7042 28.5 78.6375 28.5L78.0875 28.45C77.9209 28.4167 77.7875 28.4167 77.6875 28.45C77.5875 28.45 77.5209 28.45 77.4875 28.45L76.4375 28C76.2042 28.2 75.9375 28.3 75.6375 28.3C75.2709 28.3 74.9542 28.1833 74.6875 27.95C74.6209 28.0167 74.5875 28.0667 74.5875 28.1H73.8375C73.8042 28.1 73.7875 28.1 73.7875 28.1C73.7875 28.0667 73.7709 28.05 73.7375 28.05H73.5375C73.2375 28.05 72.9875 28.2333 72.7875 28.6V28.8C72.7542 28.8667 72.7042 28.9667 72.6375 29.1C72.6042 29.2 72.5542 29.3167 72.4875 29.45C72.4875 29.4833 72.5209 29.5333 72.5875 29.6L72.6875 29.8V29.9C72.6875 29.9333 72.6875 30 72.6875 30.1C72.6875 30.1667 72.6709 30.2667 72.6375 30.4C72.6709 30.5 72.6875 30.6667 72.6875 30.9C72.6875 31.0333 72.6042 31.15 72.4375 31.25L72.3375 32.9C72.5375 33.0667 72.6209 33.35 72.5875 33.75H73.1875C73.3875 33.75 73.5375 33.8167 73.6375 33.95C73.7375 34.0833 73.8042 34.15 73.8375 34.15L74.1875 34L74.5375 34.25C74.6375 34.25 74.7042 34.2 74.7375 34.1L75.0375 33.4V32.65L75.0875 31.9C75.1209 31.8 75.1375 31.7167 75.1375 31.65C75.1709 31.55 75.1875 31.4833 75.1875 31.45L75.1375 31.3C75.2042 31.1667 75.2375 31.0667 75.2375 31C75.2375 30.9 75.2375 30.8333 75.2375 30.8L75.1375 30.35C75.2709 30.0167 75.4375 29.85 75.6375 29.85C75.9042 29.9833 76.2709 30.1 76.7375 30.2L76.9875 30.1C77.0875 30.0667 77.1709 30.05 77.2375 30.05C77.3042 30.05 77.4209 30.1833 77.5875 30.45C77.9542 30.3167 78.1375 30.25 78.1375 30.25L78.5375 30.5H78.6375C79.0375 30.5 79.4209 30.3333 79.7875 30L80.6376 30.8C80.4709 31.1 80.2875 31.4833 80.0875 31.95C80.0542 32.1167 80.0042 32.3167 79.9375 32.55C79.9042 32.7833 79.8375 33.0333 79.7375 33.3C79.5042 33.4 79.3875 33.5333 79.3875 33.7C79.3875 33.7667 79.4375 33.8833 79.5375 34.05C79.6375 34.25 79.6875 34.3833 79.6875 34.45L79.5875 34.6C79.6542 34.7667 79.6375 34.9167 79.5375 35.05L79.3875 35.3C79.4209 35.3333 79.4375 35.4 79.4375 35.5C79.4375 35.8 79.2209 36.05 78.7875 36.25L78.6875 36.35C78.7209 36.3833 78.7375 36.4333 78.7375 36.5C78.7375 36.7333 78.6042 36.8833 78.3375 36.95C77.9709 37.05 77.7542 37.1333 77.6875 37.2C77.6209 37.3 77.5209 37.4167 77.3875 37.55C77.2542 37.6833 77.1042 37.8333 76.9375 38C76.2709 38.4333 75.8042 38.6167 75.5375 38.55L74.9375 38.4C74.7709 38.4 74.6042 38.45 74.4375 38.55C74.2709 38.65 74.1375 38.6833 74.0375 38.65L73.8375 38.6H73.5875C73.4542 38.6 73.3542 38.6 73.2875 38.6C73.2209 38.6333 73.1709 38.65 73.1375 38.65C73.1709 38.65 73.1875 38.65 73.1875 38.65ZM74.1875 17.6L74.2875 17.4L74.1375 17.3C74.1375 17.4 74.1542 17.5 74.1875 17.6ZM77.6875 19.3C77.8542 19.3 77.9542 19.2 77.9875 19L77.9375 18.35H77.8375C77.7375 18.35 77.6875 18.2667 77.6875 18.1C77.6209 17.9333 77.5375 17.85 77.4375 17.85C77.3042 17.7833 77.2042 17.8333 77.1375 18C77.1042 18.0333 77.0875 18.0833 77.0875 18.15C77.1209 18.2167 77.1375 18.2833 77.1375 18.35L77.1875 18.7L77.0375 18.85L77.6875 19.3ZM73.2875 19.95C73.5542 19.85 73.5542 19.7333 73.2875 19.6C73.2209 19.6667 73.2209 19.7833 73.2875 19.95ZM79.7875 19.9L79.6875 19.7L79.5375 19.8L79.7875 19.9ZM73.1375 24.45L73.6375 24.3L74.3375 24.1C74.5709 24.1 74.8209 24.0833 75.0875 24.05C75.3542 23.9833 75.6542 23.9167 75.9875 23.85L76.1375 23.25C76.1709 23.2167 76.2542 23.1667 76.3875 23.1C76.2542 22.9667 76.1375 22.8333 76.0375 22.7C75.9709 22.5667 75.9542 22.4333 75.9875 22.3L76.0375 21.95V21.65C76.0375 21.35 75.9042 21.1 75.6375 20.9C75.6709 20.8 75.6875 20.6667 75.6875 20.5C75.6875 20.2333 75.3875 20.0833 74.7875 20.05C74.6875 20.05 74.5042 20.15 74.2375 20.35L73.4375 20.9C73.5709 21 73.5875 21.1333 73.4875 21.3C73.4542 21.4333 73.3375 21.5 73.1375 21.5V21.65C73.2375 21.5833 73.3375 21.6333 73.4375 21.8C73.5042 21.9333 73.5209 22.0167 73.4875 22.05L73.3875 23.55C73.3875 23.65 73.3875 23.7333 73.3875 23.8C73.4209 23.8667 73.4375 23.9 73.4375 23.9C73.4375 24 73.3875 24.05 73.2875 24.05C73.1875 23.9833 73.1042 23.9 73.0375 23.8L72.8875 23.9L72.8375 24.2L73.1375 24.45ZM76.6375 21.4C76.7042 21.5 76.8042 21.5 76.9375 21.4C76.8375 21.1 76.7375 21.1 76.6375 21.4ZM73.4375 23.85C73.4375 23.9167 73.4375 23.9333 73.4375 23.9C73.4375 23.9 73.4375 23.8833 73.4375 23.85ZM69.0375 27.8C69.1375 27.7333 69.2709 27.55 69.4375 27.25L69.3875 27.1H69.2875C69.1209 27.1 68.9042 27.1833 68.6375 27.35C68.7375 27.5167 68.8709 27.6667 69.0375 27.8ZM78.6375 27.45C78.6709 27.35 78.6542 27.2667 78.5875 27.2C78.5542 27.1667 78.4709 27.1833 78.3375 27.25C78.3375 27.3167 78.4375 27.3833 78.6375 27.45ZM69.9875 34.15L70.3875 33.95L70.3375 33.75L70.0875 33.7L69.9875 33.8V33.75L69.9375 33.55L69.7875 33.5L69.6875 34.05L69.9875 34.15ZM73.7875 34.95C73.8209 34.8833 73.8042 34.8167 73.7375 34.75C73.6709 34.6833 73.6042 34.6833 73.5375 34.75C73.5375 34.8167 73.6209 34.8833 73.7875 34.95ZM88.4231 39.05C88.3898 38.9833 88.3398 38.9167 88.2731 38.85C88.2064 38.8167 88.1398 38.7667 88.0731 38.7C87.8731 38.5667 87.6564 38.4667 87.4231 38.4C87.3898 38.4333 87.2898 38.4833 87.1231 38.55L86.7731 38.4C86.5731 38.3 86.4398 38.25 86.3731 38.25L85.9231 38.35C85.8231 38.35 85.5898 38.2 85.2231 37.9C85.0564 37.7333 84.9064 37.5833 84.7731 37.45C84.6731 37.3167 84.6064 37.2 84.5731 37.1C84.5731 37.0667 84.5398 37.05 84.4731 37.05L84.2731 37.1C84.2064 37.1 84.1398 37.05 84.0731 36.95C84.0398 36.8833 84.0064 36.8 83.9731 36.7C83.9398 36.5667 83.8898 36.4333 83.8231 36.3C83.7898 36.2333 83.6398 36.1167 83.3731 35.95C83.3398 35.95 83.2898 35.85 83.2231 35.65C83.0898 35.6167 83.0231 35.55 83.0231 35.45L83.1731 35.2C83.2398 35.1 83.2731 34.9833 83.2731 34.85C83.2731 34.6833 83.2064 34.5333 83.0731 34.4C82.9064 34.1667 82.8231 33.9833 82.8231 33.85C82.8898 33.7833 82.9398 33.7 82.9731 33.6C83.0064 33.4667 83.0564 33.3333 83.1231 33.2C83.1231 33.2 83.0564 33.0833 82.9231 32.85C82.6898 32.4833 82.5898 32.1833 82.6231 31.95C82.6231 31.9167 82.7564 31.7667 83.0231 31.5L82.7231 31.25C82.7231 31.2167 82.7064 31.1833 82.6731 31.15V30.65C82.6731 30.5833 82.6731 30.5167 82.6731 30.45C82.6731 30.3833 82.6898 30.3 82.7231 30.2L82.9731 29.9C82.9064 29.7 82.9064 29.5167 82.9731 29.35C83.0064 29.3167 83.0398 29.2833 83.0731 29.25C83.1064 29.2167 83.1398 29.1833 83.1731 29.15C83.1398 29.1167 83.0564 29.1 82.9231 29.1L82.8231 28.3V28.15C82.8231 27.75 82.9231 27.5833 83.1231 27.65L83.4731 27.7L83.5731 27.65C83.5398 27.5167 83.4064 27.4167 83.1731 27.35C83.0064 27.2833 82.9231 27.2167 82.9231 27.15L83.1231 25.9C83.1898 25.9 83.2398 25.8333 83.2731 25.7L83.1731 25.35C83.1064 25.05 83.0564 24.8833 83.0231 24.85C83.0898 24.7833 83.1731 24.7167 83.2731 24.65C83.3731 24.5833 83.4564 24.4833 83.5231 24.35C83.5231 24.3167 83.4231 24.1333 83.2231 23.8C83.1231 23.6333 83.0731 23.4333 83.0731 23.2C83.1398 23.1333 83.1898 23.0333 83.2231 22.9C83.2898 22.7667 83.3564 22.6167 83.4231 22.45C83.4231 22.2167 83.4231 21.9667 83.4231 21.7C83.4564 21.4 83.4898 21.0667 83.5231 20.7C83.6231 20.6 83.6898 20.5 83.7231 20.4C83.8231 19.8 83.8564 19.3833 83.8231 19.15C83.9564 19.1833 84.0731 19.15 84.1731 19.05L84.2231 18.65C84.4231 18.5833 84.5231 18.4667 84.5231 18.3C84.5898 18 84.6231 17.85 84.6231 17.85C85.1564 17.2167 85.4898 16.9 85.6231 16.9H85.6731V16.95H85.7731C85.8398 16.95 85.8898 16.8833 85.9231 16.75L86.4731 16.55C87.0064 16.9833 87.2731 17.1167 87.2731 16.95V16.65C87.2731 16.5833 87.2564 16.5167 87.2231 16.45C87.2231 16.3833 87.2231 16.3333 87.2231 16.3V16.1C87.6231 15.8 87.8564 15.65 87.9231 15.65L88.2231 15.75L88.7731 15.65C89.0398 16.0167 89.2398 16.2 89.3731 16.2C89.4731 16.2 89.5898 16.1333 89.7231 16C89.8898 15.8 89.9898 15.7 90.0231 15.7L90.4231 15.4C90.4231 15.5333 90.4898 15.6667 90.6231 15.8L90.9731 15.55C91.0064 15.6833 91.1398 15.8333 91.3731 16L91.5731 15.95H91.7731L91.9731 15.8C92.0398 15.8333 92.1398 15.8667 92.2731 15.9C92.4064 15.9333 92.5398 15.9667 92.6731 16C92.7731 16.3333 93.0564 16.5333 93.5231 16.6L93.6231 16.8C93.6564 16.7667 93.7564 16.75 93.9231 16.75C94.0231 16.75 94.0731 16.7833 94.0731 16.85L94.4731 17.7C94.5398 17.6333 94.6064 17.6 94.6731 17.6C94.8398 17.6 94.9398 17.7 94.9731 17.9L95.1231 18.55L95.4731 18.75C95.5398 18.8167 95.5898 19.05 95.6231 19.45C95.6564 19.5167 95.6898 19.6 95.7231 19.7C95.7564 19.7667 95.7898 19.8667 95.8231 20C95.7898 20.1 95.7731 20.35 95.7731 20.75L96.0231 21.05C96.1898 21.1833 96.2564 21.3333 96.2231 21.5L96.1731 21.8C96.1398 21.8333 96.0731 21.8667 95.9731 21.9C95.9064 21.9333 95.8398 21.9833 95.7731 22.05C95.6731 22.15 95.5564 22.1833 95.4231 22.15C95.3898 22.1833 95.3731 22.25 95.3731 22.35C95.5731 22.55 95.7731 22.6833 95.9731 22.75L95.8731 23.2C95.8731 23.2 95.8064 23.2333 95.6731 23.3C95.5731 23.4 95.4898 23.45 95.4231 23.45C95.2564 23.6167 95.1731 23.7667 95.1731 23.9C95.1731 24.1 95.3898 24.2667 95.8231 24.4L95.9231 24.75C95.8898 24.7833 95.8398 24.9167 95.7731 25.15V25.35C95.7731 25.45 95.7731 25.5667 95.7731 25.7C95.7731 25.8 95.7898 25.9333 95.8231 26.1L95.4231 26.3C95.4564 26.3333 95.4898 26.4 95.5231 26.5C95.5564 26.6 95.6064 26.7167 95.6731 26.85C95.8064 27.0167 95.8731 27.1333 95.8731 27.2L95.7731 27.95C95.7064 27.8833 95.6064 27.85 95.4731 27.85H95.3231L95.2231 28.05C95.2231 28.05 95.3064 28.1667 95.4731 28.4C95.6398 28.6333 95.7231 28.7667 95.7231 28.8C95.7231 28.9667 95.6564 29.0667 95.5231 29.1C95.3564 29.1667 95.2731 29.2667 95.2731 29.4C95.2731 29.3667 95.3231 29.4667 95.4231 29.7C95.4898 29.7333 95.4898 29.8333 95.4231 30C95.4231 30 95.3898 30.0333 95.3231 30.1C95.3898 30.5333 95.4398 30.9 95.4731 31.2C95.5064 31.4667 95.5231 31.6333 95.5231 31.7C95.4898 31.8 95.4564 31.9333 95.4231 32.1C95.3898 32.2333 95.3398 32.3833 95.2731 32.55L95.3731 32.95L95.3231 34.6L94.7231 35.6L94.5231 36.35C94.4564 36.4167 94.3898 36.45 94.3231 36.45C94.2898 36.4167 94.2398 36.4 94.1731 36.4C94.1064 36.4 93.9898 36.4667 93.8231 36.6V37.1C93.0564 37.8333 92.6231 38.1833 92.5231 38.15L92.3231 38.1C92.3564 38.1 91.9231 38.25 91.0231 38.55C90.9898 38.5833 90.9564 38.6167 90.9231 38.65C90.8898 38.7167 90.8398 38.8 90.7731 38.9H90.6231L90.2731 38.8C90.1731 38.8 89.8398 38.8667 89.2731 39L88.8231 38.85C88.8231 38.85 88.6898 38.9167 88.4231 39.05ZM86.3731 18.6C86.4064 18.6 86.3731 18.5333 86.2731 18.4L86.1231 18.5C86.1564 18.5333 86.1898 18.55 86.2231 18.55C86.2898 18.55 86.3398 18.5667 86.3731 18.6ZM92.2731 19L92.4731 18.85C92.4398 18.7167 92.3564 18.6667 92.2231 18.7L92.2731 19ZM86.3731 19.4C86.4064 19.3333 86.3898 19.2667 86.3231 19.2C86.2564 19.1333 86.1898 19.1333 86.1231 19.2C86.1231 19.2667 86.2064 19.3333 86.3731 19.4ZM88.9731 34.55C89.0064 34.5167 89.1898 34.4167 89.5231 34.25C89.7898 34.15 89.9064 34.1 89.8731 34.1H89.8231C89.8564 34.1 89.8731 34.1 89.8731 34.1L90.1731 34.2C90.2398 34.2 90.3231 34.1333 90.4231 34C90.2564 33.7667 90.1731 33.5833 90.1731 33.45L90.2731 33C90.3398 32.9333 90.3898 32.9 90.4231 32.9L90.5231 33C90.4898 33.1 90.4898 33.2167 90.5231 33.35L90.7231 33.2V32.9L90.3731 32.2C90.5064 32.1333 90.6398 32.0333 90.7731 31.9C90.6064 31.5 90.5398 31.1833 90.5731 30.95L90.6231 30.6C90.6564 30.4667 90.6731 30.3667 90.6731 30.3C90.6731 30.2 90.6731 30.1333 90.6731 30.1C90.7398 30.0333 90.8398 29.9833 90.9731 29.95C91.2398 29.8833 91.3731 29.7 91.3731 29.4C91.3731 29.3333 91.3231 29.3 91.2231 29.3C91.1564 29.3 91.0731 29.2333 90.9731 29.1C90.9398 29.0667 90.8731 29.05 90.7731 29.05C90.6064 28.7833 90.5231 28.5833 90.5231 28.45C90.5898 27.9833 90.6398 27.7833 90.6731 27.85C90.7731 27.85 90.8231 27.5833 90.8231 27.05C90.8898 26.55 90.8898 26.2167 90.8231 26.05C90.7564 25.7833 90.7064 25.65 90.6731 25.65V25.7C90.6731 25.6667 90.6731 25.65 90.6731 25.65C90.7064 25.5167 90.7398 25.35 90.7731 25.15C90.8064 24.9167 90.8398 24.6667 90.8731 24.4C90.9064 24.3667 90.9398 24.3333 90.9731 24.3C91.0398 24.2667 91.0898 24.2333 91.1231 24.2C91.2231 24.1 91.2731 24.0167 91.2731 23.95L91.1231 23.75C90.9898 23.6167 90.9231 23.4167 90.9231 23.15C91.0231 23.05 91.0898 22.9333 91.1231 22.8L91.1731 22.1C91.2398 22.0333 91.2898 21.9333 91.3231 21.8C91.3231 21.7667 91.3231 21.7167 91.3231 21.65C91.3231 21.5833 91.2898 21.5167 91.2231 21.45L91.0731 21.2C91.1064 20.7 91.1398 20.4667 91.1731 20.5L90.9731 20.45C90.9064 20.4167 90.8398 20.4 90.7731 20.4C90.7398 20.4 90.7231 20.3833 90.7231 20.35C90.5898 20.1833 90.4898 20.1333 90.4231 20.2L90.0731 20.3C89.9064 20.3 89.7231 20.1667 89.5231 19.9H89.3231L89.2231 20.25C89.1564 20.45 89.0564 20.5333 88.9231 20.5L88.5231 20.6C88.7231 20.6333 88.8231 20.7333 88.8231 20.9L88.5231 21.9C88.5564 21.8667 88.5898 22.0167 88.6231 22.35V22.5C88.6231 22.8333 88.5564 23.2667 88.4231 23.8C88.3231 23.9 88.2564 24 88.2231 24.1V24.55C88.2231 24.65 88.2231 24.75 88.2231 24.85C88.2564 24.95 88.2564 25.0667 88.2231 25.2C88.2231 25.2667 88.2064 25.3333 88.1731 25.4C88.1731 25.4667 88.1731 25.5333 88.1731 25.6C88.1731 25.8 88.2231 25.95 88.3231 26.05C88.4231 26.4167 88.4564 26.8 88.4231 27.2C88.3564 27.2667 88.2898 27.3667 88.2231 27.5C88.1564 27.6 88.0898 27.7167 88.0231 27.85L88.2731 28.45C88.2731 28.5167 88.2564 28.5667 88.2231 28.6C88.0231 28.6 87.8898 28.6167 87.8231 28.65C88.0231 28.9833 88.1231 29.1833 88.1231 29.25L87.9731 29.9C87.9398 29.9333 87.9064 29.9667 87.8731 30C87.8398 30.0333 87.8064 30.0833 87.7731 30.15V30.2L87.9231 30.8C87.9231 31.0333 87.7564 31.1 87.4231 31V31.2C87.5898 31.2667 87.7731 31.4167 87.9731 31.65C87.9398 31.8833 87.9231 32.1667 87.9231 32.5C87.9231 32.8 87.9231 33.1333 87.9231 33.5C87.9898 33.6 88.1064 33.8167 88.2731 34.15C88.3398 34.15 88.4731 34.1833 88.6731 34.25C88.6398 34.35 88.6398 34.45 88.6731 34.55H88.9731ZM85.7731 24.15L86.1731 24C86.2731 23.8333 86.3231 23.65 86.3231 23.45C86.3898 23.3833 86.3564 23.3 86.2231 23.2L85.9231 23.45H85.8231C85.7231 23.25 85.6064 23.15 85.4731 23.15C85.3398 23.15 85.2731 23.25 85.2731 23.45C85.2731 23.65 85.3064 23.7833 85.3731 23.85L85.7731 24.15ZM93.0231 27.75L93.1731 27.65C93.1731 27.5833 93.1564 27.5333 93.1231 27.5L93.0231 27.75ZM85.0731 30.05L85.0231 29.5C84.9564 29.5667 84.8898 29.6833 84.8231 29.85C84.8231 29.9167 84.9064 29.9833 85.0731 30.05ZM93.3731 34.15C93.5064 34.2167 93.5898 34.2 93.6231 34.1C93.5898 34.0667 93.5564 34.0333 93.5231 34C93.5231 33.9667 93.4898 33.9333 93.4231 33.9L93.3731 34.15ZM94.5231 34.75C94.6231 34.6167 94.6398 34.5167 94.5731 34.45L94.2231 34.5C94.2564 34.5333 94.2564 34.6167 94.2231 34.75H94.5231ZM85.3231 37.25C85.4231 37.25 85.5231 37.2 85.6231 37.1V36.75L85.3231 36.6C85.1564 36.6 85.0731 36.7167 85.0731 36.95C85.0398 37.15 85.1231 37.25 85.3231 37.25ZM103.366 38.1L103.266 38.05H102.266C102.232 38.05 102.166 38.05 102.066 38.05C101.999 38.05 101.916 38.0333 101.816 38C101.716 37.9333 101.566 37.8833 101.366 37.85L100.216 38.05C99.9823 37.95 99.6823 37.85 99.3157 37.75L98.3157 37.95C98.049 37.8833 97.8657 37.8167 97.7657 37.75L97.7157 37.6L98.0657 31.15C98.3657 30.5833 98.5157 30.2333 98.5157 30.1C98.5157 30.0333 98.5157 29.9667 98.5157 29.9C98.5157 29.8333 98.499 29.75 98.4657 29.65C98.399 29.4167 98.3823 29.25 98.4157 29.15C98.4157 28.9833 98.4657 28.7833 98.5657 28.55L98.7157 28.15L98.4157 27.1L98.5657 26.65C98.599 26.5833 98.6323 26.4833 98.6657 26.35C98.699 26.2167 98.7323 26.05 98.7657 25.85L99.1657 25.25L98.6657 24.9L98.7657 24.5V24.45C98.7657 24.3167 98.699 24.1833 98.5657 24.05L98.6157 23.85C98.6823 23.8167 98.7657 23.7833 98.8657 23.75C98.9657 23.6833 99.0823 23.6 99.2157 23.5L99.3157 23.45C98.949 23.15 98.7657 22.95 98.7657 22.85L98.9657 22.5C98.9657 22.4667 98.8657 22.4 98.6657 22.3V21.7C98.6657 21.6333 98.6657 21.5667 98.6657 21.5C98.699 21.4333 98.7323 21.35 98.7657 21.25C98.8323 21.15 98.949 21.1 99.1157 21.1L99.2157 21C98.9157 19.9 98.7657 19.2667 98.7657 19.1L98.8657 18.8L98.9657 18.45L99.0157 17.7C99.049 17.6667 99.0823 17.6333 99.1157 17.6C99.1823 17.5333 99.2657 17.4667 99.3657 17.4L98.9657 16.95C98.9323 16.7833 98.9323 16.6333 98.9657 16.5C98.8657 16 98.8157 15.6333 98.8157 15.4C98.8157 15.3 98.849 15.2167 98.9157 15.15C98.949 15.15 98.999 15.1833 99.0657 15.25C99.099 15.1167 99.1157 15 99.1157 14.9C99.149 14.8 99.1657 14.7333 99.1657 14.7C99.1323 14.5333 99.1157 14.4333 99.1157 14.4C99.1157 14.3333 99.099 14.3333 99.0657 14.4L99.2657 13.05C99.299 12.9833 99.3323 12.9167 99.3657 12.85C99.399 12.7833 99.4323 12.7167 99.4657 12.65L99.3157 12.25C99.1823 12.0167 99.1157 11.8833 99.1157 11.85C99.1157 11.8167 99.199 11.6 99.3657 11.2L99.8157 10.95C99.7157 10.85 99.5657 10.8 99.3657 10.8C99.3657 10.7 99.349 10.6 99.3157 10.5C99.3157 10.4 99.3157 10.3 99.3157 10.2C99.3157 9.63333 99.3323 9.23333 99.3657 9C99.399 8.73333 99.4323 8.65 99.4657 8.75L99.3657 8.5C99.3323 8.43333 99.3157 8.35 99.3157 8.25C99.3157 7.91667 99.6157 7.78333 100.216 7.85L100.516 7.95C100.682 8.05 100.782 8.1 100.816 8.1L101.016 8C101.082 7.96667 101.166 7.95 101.266 7.95C101.366 8.05 101.466 8.13333 101.566 8.2C101.966 8.36667 102.232 8.45 102.366 8.45C102.432 8.45 102.499 8.36667 102.566 8.2C102.699 8.16667 102.816 8.15 102.916 8.15C103.016 8.11666 103.132 8.11666 103.266 8.15C103.332 8.15 103.482 8.3 103.716 8.6C103.916 8.93333 104.032 9.1 104.066 9.1C104.066 9.1 104.249 8.96667 104.616 8.7C104.916 8.43333 105.082 8.31666 105.116 8.35L105.466 8.4C105.499 8.4 105.566 8.35 105.666 8.25C105.799 8.18333 105.882 8.15 105.916 8.15C106.049 8.15 106.132 8.25 106.166 8.45C106.199 8.65 106.366 8.76666 106.666 8.8H106.816C106.882 8.66667 106.916 8.56667 106.916 8.5H107.116L108.566 8.8C108.732 8.8 108.832 8.86666 108.866 9L109.016 9.35C109.482 9.08333 109.682 8.95 109.616 8.95C109.716 9.01666 109.882 9.13333 110.116 9.3L110.716 9.55C110.849 9.65 110.916 9.76666 110.916 9.9C110.916 10 110.899 10.1 110.866 10.2L110.766 10.45C110.766 10.65 111.032 10.7333 111.566 10.7H112.216C112.216 10.7333 112.216 10.8 112.216 10.9C112.249 10.9667 112.282 11.05 112.316 11.15C112.382 11.1833 112.432 11.2333 112.466 11.3C112.532 11.3667 112.599 11.4333 112.666 11.5C112.966 11.9 113.116 12.15 113.116 12.25C113.116 12.35 113.082 12.4333 113.016 12.5L113.066 12.6C113.099 12.6667 113.116 12.7333 113.116 12.8L112.766 13.3C112.766 13.5667 113.032 13.7667 113.566 13.9L113.516 14C113.582 14.2 113.616 14.4167 113.616 14.65L113.766 14.85V15.2L113.866 15.4L113.816 16.75C113.682 16.8833 113.566 17.05 113.466 17.25C113.466 17.2833 113.499 17.3833 113.566 17.55C113.732 17.7833 113.782 18.0833 113.716 18.45L113.416 19.4C113.416 19.4667 113.416 19.5667 113.416 19.7C113.416 19.8333 113.399 19.9833 113.366 20.15C113.299 20.4167 113.182 20.8 113.016 21.3L112.716 21.6C112.782 21.9333 112.766 22.15 112.666 22.25C112.566 22.3833 112.516 22.4667 112.516 22.5C112.482 22.7 112.499 22.9 112.566 23.1L112.016 23.7C112.016 23.7667 111.999 23.8333 111.966 23.9C111.899 23.9 111.766 23.9333 111.566 24C111.499 24.0667 111.432 24.2833 111.366 24.65C111.332 24.7833 111.199 24.9 110.966 25C110.832 25.0333 110.732 25.0833 110.666 25.15C110.632 25.1833 110.599 25.2167 110.566 25.25C110.532 25.3167 110.432 25.5 110.266 25.8C110.232 25.8333 109.732 26.05 108.766 26.45L108.116 26.5L107.266 26.75C107.199 26.7167 107.066 26.6667 106.866 26.6L106.566 26.65C106.466 26.6833 106.382 26.7 106.316 26.7L105.666 26.5L104.916 26.35H104.616C104.349 26.35 104.082 26.4833 103.816 26.75L103.866 27.8C103.832 27.8667 103.732 27.9833 103.566 28.15C103.632 28.3833 103.666 28.6 103.666 28.8C103.666 28.9667 103.666 29.1167 103.666 29.25C103.666 29.4833 103.649 29.6333 103.616 29.7L103.716 30.5C103.582 30.6667 103.516 30.7833 103.516 30.85L103.666 32.05C103.466 32.1833 103.366 32.3833 103.366 32.65C103.366 32.9167 103.399 33.0667 103.466 33.1L103.566 33.15C103.466 35.35 103.316 36.7667 103.116 37.4C103.182 37.5333 103.266 37.6667 103.366 37.8V38.1ZM100.916 9.7C101.016 9.6 101.049 9.53333 101.016 9.5L100.716 9.45L100.666 9.6L100.916 9.7ZM100.466 10.15L100.566 10.05C100.566 9.88333 100.516 9.68333 100.416 9.45C100.282 9.58333 100.216 9.71667 100.216 9.85L100.266 10.15H100.466ZM105.016 10C105.116 10.0333 105.216 9.98333 105.316 9.85C105.249 9.78333 105.166 9.76667 105.066 9.8C105.032 9.83333 105.016 9.9 105.016 10ZM108.866 11.35C108.899 11.2833 108.882 11.2167 108.816 11.15C108.749 11.0833 108.682 11.0833 108.616 11.15C108.616 11.2833 108.699 11.35 108.866 11.35ZM104.466 12.55L104.516 12.45C104.482 12.35 104.416 12.3 104.316 12.3C104.249 12.4333 104.199 12.5167 104.166 12.55H104.466ZM103.866 21.85C103.866 21.85 103.966 21.8167 104.166 21.75L104.366 21.65C104.432 21.6833 104.566 21.7 104.766 21.7L105.266 21.65C105.466 21.65 105.582 21.7 105.616 21.8C105.816 21.7333 105.949 21.7 106.016 21.7L106.416 21.8C106.482 21.8 106.582 21.75 106.716 21.65C106.816 21.55 106.882 21.5 106.916 21.5C106.916 21.5 106.966 21.5333 107.066 21.6C107.132 21.6 107.266 21.5 107.466 21.3C107.666 21.0333 107.816 20.8833 107.916 20.85C108.049 20.15 108.099 19.7833 108.066 19.75L108.166 18.9C108.266 18.7 108.366 18.45 108.466 18.15L108.416 17.5C108.382 17.2667 108.349 17.0833 108.316 16.95C108.316 16.7833 108.316 16.65 108.316 16.55C108.482 16.45 108.632 16.3 108.766 16.1C108.766 15.9667 108.666 15.8333 108.466 15.7L108.066 15.4C108.099 15.3 108.116 15.1833 108.116 15.05C108.116 14.7167 107.966 14.5 107.666 14.4C107.699 14.4 107.716 14.3833 107.716 14.35C107.716 14.25 107.582 14.0667 107.316 13.8L106.866 13.3C106.799 13.3 106.749 13.2833 106.716 13.25C106.616 13.35 106.566 13.45 106.566 13.55H106.116C106.016 13.5167 105.882 13.5 105.716 13.5C104.916 13.5 104.516 13.65 104.516 13.95L104.716 14.35C104.716 14.4167 104.599 14.55 104.366 14.75C104.566 15.0833 104.666 15.3333 104.666 15.5C104.632 15.8333 104.449 16.0167 104.116 16.05C104.182 16.25 104.266 16.4 104.366 16.5C104.399 16.6333 104.416 16.8167 104.416 17.05C104.416 17.25 104.416 17.4833 104.416 17.75L104.316 17.9V18.4L104.366 18.6C104.399 18.7 104.416 18.8167 104.416 18.95C104.416 19.0167 104.366 19.0333 104.266 19C104.432 19.1667 104.399 19.3333 104.166 19.5L104.316 19.8C104.049 20 103.916 20.15 103.916 20.25L104.016 20.45L104.166 20.8C103.866 21.1333 103.716 21.3833 103.716 21.55L103.666 21.75L103.866 21.85ZM99.6657 14.3C99.7657 14.3 99.8157 14.2 99.8157 14C99.749 14 99.6823 14.0333 99.6157 14.1C99.5823 14.1333 99.599 14.2 99.6657 14.3ZM111.066 15.05C111.099 15.0167 111.116 14.9667 111.116 14.9C111.116 14.8 111.049 14.75 110.916 14.75C110.882 14.85 110.932 14.95 111.066 15.05ZM101.166 15.8C101.266 15.7333 101.316 15.6333 101.316 15.5C101.249 15.4667 101.182 15.4833 101.116 15.55C101.082 15.5833 101.099 15.6667 101.166 15.8ZM112.216 16L112.316 15.95C112.349 15.95 112.382 15.9333 112.416 15.9L112.316 15.75C112.282 15.7833 112.266 15.8167 112.266 15.85C112.266 15.8833 112.249 15.9333 112.216 16ZM111.366 17.05C111.399 17.0167 111.482 16.9667 111.616 16.9C111.582 16.8667 111.499 16.8667 111.366 16.9V17.05ZM112.816 18.7L112.916 18.55C112.882 18.5167 112.866 18.4167 112.866 18.25C112.766 18.05 112.599 17.95 112.366 17.95H112.266C112.132 17.95 111.999 18.0167 111.866 18.15V18.25C112.099 18.2833 112.416 18.4333 112.816 18.7ZM100.066 22.25C100.099 22.1833 100.082 22.1167 100.016 22.05C99.9823 21.9833 99.9157 22 99.8157 22.1C99.8157 22.2 99.899 22.25 100.066 22.25ZM103.916 22.8C104.016 22.8333 104.099 22.8167 104.166 22.75C104.199 22.7167 104.182 22.6333 104.116 22.5C104.049 22.5 103.982 22.6 103.916 22.8ZM110.416 22.8C110.516 22.8333 110.616 22.7833 110.716 22.65C110.682 22.6167 110.632 22.6 110.566 22.6C110.466 22.6 110.416 22.6667 110.416 22.8ZM105.916 23.35L105.816 23.2L105.766 23.25L105.816 23.35H105.916ZM106.716 24.05L106.766 23.8L106.666 23.7L106.416 23.65L106.266 23.8C106.299 23.8333 106.316 23.8833 106.316 23.95L106.716 24.05ZM101.816 25.55C101.882 25.55 101.932 25.5333 101.966 25.5V25.25L101.666 25.1C101.766 25.0667 101.766 24.9 101.666 24.6C101.699 24.5333 101.716 24.4 101.716 24.2L101.016 24.4V24.65C100.982 24.7167 101.082 24.8833 101.316 25.15C101.582 25.4167 101.749 25.55 101.816 25.55ZM107.066 25.6L107.216 25.4L106.966 25.35L106.866 25.55C106.899 25.5833 106.966 25.6 107.066 25.6ZM107.716 25.55L107.866 25.35H107.516L107.716 25.55ZM105.116 25.9C105.249 25.9333 105.349 25.9167 105.416 25.85L105.316 25.75C105.149 25.8167 105.082 25.8667 105.116 25.9ZM101.616 29.8L101.466 29.65C101.399 29.65 101.349 29.6667 101.316 29.7L101.616 29.8ZM101.616 30.6C101.649 30.5333 101.632 30.4667 101.566 30.4C101.532 30.3667 101.449 30.3833 101.316 30.45C101.316 30.55 101.416 30.6 101.616 30.6ZM102.816 30.65C102.849 30.6167 102.866 30.5333 102.866 30.4H102.666C102.699 30.4333 102.749 30.5167 102.816 30.65ZM99.5657 33.85C99.599 33.8167 99.6323 33.7833 99.6657 33.75C99.7323 33.7167 99.7823 33.6833 99.8157 33.65L99.5157 33.5L99.4157 33.6C99.4823 33.7333 99.5323 33.8167 99.5657 33.85ZM98.5657 33.8C98.6323 33.8667 98.699 33.8667 98.7657 33.8L98.7157 33.65C98.6823 33.65 98.6323 33.7 98.5657 33.8ZM101.366 36.7C101.399 36.6333 101.382 36.5667 101.316 36.5C101.282 36.4667 101.199 36.4833 101.066 36.55C101.066 36.65 101.166 36.7 101.366 36.7ZM120.308 39.05C120.275 38.9833 120.225 38.9167 120.158 38.85C120.091 38.8167 120.025 38.7667 119.958 38.7C119.758 38.5667 119.541 38.4667 119.308 38.4C119.275 38.4333 119.175 38.4833 119.008 38.55L118.658 38.4C118.458 38.3 118.325 38.25 118.258 38.25L117.808 38.35C117.708 38.35 117.475 38.2 117.108 37.9C116.941 37.7333 116.791 37.5833 116.658 37.45C116.558 37.3167 116.491 37.2 116.458 37.1C116.458 37.0667 116.425 37.05 116.358 37.05L116.158 37.1C116.091 37.1 116.025 37.05 115.958 36.95C115.925 36.8833 115.891 36.8 115.858 36.7C115.825 36.5667 115.775 36.4333 115.708 36.3C115.675 36.2333 115.525 36.1167 115.258 35.95C115.225 35.95 115.175 35.85 115.108 35.65C114.975 35.6167 114.908 35.55 114.908 35.45L115.058 35.2C115.125 35.1 115.158 34.9833 115.158 34.85C115.158 34.6833 115.091 34.5333 114.958 34.4C114.791 34.1667 114.708 33.9833 114.708 33.85C114.775 33.7833 114.825 33.7 114.858 33.6C114.891 33.4667 114.941 33.3333 115.008 33.2C115.008 33.2 114.941 33.0833 114.808 32.85C114.575 32.4833 114.475 32.1833 114.508 31.95C114.508 31.9167 114.641 31.7667 114.908 31.5L114.608 31.25C114.608 31.2167 114.591 31.1833 114.558 31.15V30.65C114.558 30.5833 114.558 30.5167 114.558 30.45C114.558 30.3833 114.575 30.3 114.608 30.2L114.858 29.9C114.791 29.7 114.791 29.5167 114.858 29.35C114.891 29.3167 114.925 29.2833 114.958 29.25C114.991 29.2167 115.025 29.1833 115.058 29.15C115.025 29.1167 114.941 29.1 114.808 29.1L114.708 28.3V28.15C114.708 27.75 114.808 27.5833 115.008 27.65L115.358 27.7L115.458 27.65C115.425 27.5167 115.291 27.4167 115.058 27.35C114.891 27.2833 114.808 27.2167 114.808 27.15L115.008 25.9C115.075 25.9 115.125 25.8333 115.158 25.7L115.058 25.35C114.991 25.05 114.941 24.8833 114.908 24.85C114.975 24.7833 115.058 24.7167 115.158 24.65C115.258 24.5833 115.341 24.4833 115.408 24.35C115.408 24.3167 115.308 24.1333 115.108 23.8C115.008 23.6333 114.958 23.4333 114.958 23.2C115.025 23.1333 115.075 23.0333 115.108 22.9C115.175 22.7667 115.241 22.6167 115.308 22.45C115.308 22.2167 115.308 21.9667 115.308 21.7C115.341 21.4 115.375 21.0667 115.408 20.7C115.508 20.6 115.575 20.5 115.608 20.4C115.708 19.8 115.741 19.3833 115.708 19.15C115.841 19.1833 115.958 19.15 116.058 19.05L116.108 18.65C116.308 18.5833 116.408 18.4667 116.408 18.3C116.475 18 116.508 17.85 116.508 17.85C117.041 17.2167 117.375 16.9 117.508 16.9H117.558V16.95H117.658C117.725 16.95 117.775 16.8833 117.808 16.75L118.358 16.55C118.891 16.9833 119.158 17.1167 119.158 16.95V16.65C119.158 16.5833 119.141 16.5167 119.108 16.45C119.108 16.3833 119.108 16.3333 119.108 16.3V16.1C119.508 15.8 119.741 15.65 119.808 15.65L120.108 15.75L120.658 15.65C120.925 16.0167 121.125 16.2 121.258 16.2C121.358 16.2 121.475 16.1333 121.608 16C121.775 15.8 121.875 15.7 121.908 15.7L122.308 15.4C122.308 15.5333 122.375 15.6667 122.508 15.8L122.858 15.55C122.891 15.6833 123.025 15.8333 123.258 16L123.458 15.95H123.658L123.858 15.8C123.925 15.8333 124.025 15.8667 124.158 15.9C124.291 15.9333 124.425 15.9667 124.558 16C124.658 16.3333 124.941 16.5333 125.408 16.6L125.508 16.8C125.541 16.7667 125.641 16.75 125.808 16.75C125.908 16.75 125.958 16.7833 125.958 16.85L126.358 17.7C126.425 17.6333 126.491 17.6 126.558 17.6C126.725 17.6 126.825 17.7 126.858 17.9L127.008 18.55L127.358 18.75C127.425 18.8167 127.475 19.05 127.508 19.45C127.541 19.5167 127.575 19.6 127.608 19.7C127.641 19.7667 127.675 19.8667 127.708 20C127.675 20.1 127.658 20.35 127.658 20.75L127.908 21.05C128.075 21.1833 128.141 21.3333 128.108 21.5L128.058 21.8C128.025 21.8333 127.958 21.8667 127.858 21.9C127.791 21.9333 127.725 21.9833 127.658 22.05C127.558 22.15 127.441 22.1833 127.308 22.15C127.275 22.1833 127.258 22.25 127.258 22.35C127.458 22.55 127.658 22.6833 127.858 22.75L127.758 23.2C127.758 23.2 127.691 23.2333 127.558 23.3C127.458 23.4 127.375 23.45 127.308 23.45C127.141 23.6167 127.058 23.7667 127.058 23.9C127.058 24.1 127.275 24.2667 127.708 24.4L127.808 24.75C127.775 24.7833 127.725 24.9167 127.658 25.15V25.35C127.658 25.45 127.658 25.5667 127.658 25.7C127.658 25.8 127.675 25.9333 127.708 26.1L127.308 26.3C127.341 26.3333 127.375 26.4 127.408 26.5C127.441 26.6 127.491 26.7167 127.558 26.85C127.691 27.0167 127.758 27.1333 127.758 27.2L127.658 27.95C127.591 27.8833 127.491 27.85 127.358 27.85H127.208L127.108 28.05C127.108 28.05 127.191 28.1667 127.358 28.4C127.525 28.6333 127.608 28.7667 127.608 28.8C127.608 28.9667 127.541 29.0667 127.408 29.1C127.241 29.1667 127.158 29.2667 127.158 29.4C127.158 29.3667 127.208 29.4667 127.308 29.7C127.375 29.7333 127.375 29.8333 127.308 30C127.308 30 127.275 30.0333 127.208 30.1C127.275 30.5333 127.325 30.9 127.358 31.2C127.391 31.4667 127.408 31.6333 127.408 31.7C127.375 31.8 127.341 31.9333 127.308 32.1C127.275 32.2333 127.225 32.3833 127.158 32.55L127.258 32.95L127.208 34.6L126.608 35.6L126.408 36.35C126.341 36.4167 126.275 36.45 126.208 36.45C126.175 36.4167 126.125 36.4 126.058 36.4C125.991 36.4 125.875 36.4667 125.708 36.6V37.1C124.941 37.8333 124.508 38.1833 124.408 38.15L124.208 38.1C124.241 38.1 123.808 38.25 122.908 38.55C122.875 38.5833 122.841 38.6167 122.808 38.65C122.775 38.7167 122.725 38.8 122.658 38.9H122.508L122.158 38.8C122.058 38.8 121.725 38.8667 121.158 39L120.708 38.85C120.708 38.85 120.575 38.9167 120.308 39.05ZM118.258 18.6C118.291 18.6 118.258 18.5333 118.158 18.4L118.008 18.5C118.041 18.5333 118.075 18.55 118.108 18.55C118.175 18.55 118.225 18.5667 118.258 18.6ZM124.158 19L124.358 18.85C124.325 18.7167 124.241 18.6667 124.108 18.7L124.158 19ZM118.258 19.4C118.291 19.3333 118.275 19.2667 118.208 19.2C118.141 19.1333 118.075 19.1333 118.008 19.2C118.008 19.2667 118.091 19.3333 118.258 19.4ZM120.858 34.55C120.891 34.5167 121.075 34.4167 121.408 34.25C121.675 34.15 121.791 34.1 121.758 34.1H121.708C121.741 34.1 121.758 34.1 121.758 34.1L122.058 34.2C122.125 34.2 122.208 34.1333 122.308 34C122.141 33.7667 122.058 33.5833 122.058 33.45L122.158 33C122.225 32.9333 122.275 32.9 122.308 32.9L122.408 33C122.375 33.1 122.375 33.2167 122.408 33.35L122.608 33.2V32.9L122.258 32.2C122.391 32.1333 122.525 32.0333 122.658 31.9C122.491 31.5 122.425 31.1833 122.458 30.95L122.508 30.6C122.541 30.4667 122.558 30.3667 122.558 30.3C122.558 30.2 122.558 30.1333 122.558 30.1C122.625 30.0333 122.725 29.9833 122.858 29.95C123.125 29.8833 123.258 29.7 123.258 29.4C123.258 29.3333 123.208 29.3 123.108 29.3C123.041 29.3 122.958 29.2333 122.858 29.1C122.825 29.0667 122.758 29.05 122.658 29.05C122.491 28.7833 122.408 28.5833 122.408 28.45C122.475 27.9833 122.525 27.7833 122.558 27.85C122.658 27.85 122.708 27.5833 122.708 27.05C122.775 26.55 122.775 26.2167 122.708 26.05C122.641 25.7833 122.591 25.65 122.558 25.65V25.7C122.558 25.6667 122.558 25.65 122.558 25.65C122.591 25.5167 122.625 25.35 122.658 25.15C122.691 24.9167 122.725 24.6667 122.758 24.4C122.791 24.3667 122.825 24.3333 122.858 24.3C122.925 24.2667 122.975 24.2333 123.008 24.2C123.108 24.1 123.158 24.0167 123.158 23.95L123.008 23.75C122.875 23.6167 122.808 23.4167 122.808 23.15C122.908 23.05 122.975 22.9333 123.008 22.8L123.058 22.1C123.125 22.0333 123.175 21.9333 123.208 21.8C123.208 21.7667 123.208 21.7167 123.208 21.65C123.208 21.5833 123.175 21.5167 123.108 21.45L122.958 21.2C122.991 20.7 123.025 20.4667 123.058 20.5L122.858 20.45C122.791 20.4167 122.725 20.4 122.658 20.4C122.625 20.4 122.608 20.3833 122.608 20.35C122.475 20.1833 122.375 20.1333 122.308 20.2L121.958 20.3C121.791 20.3 121.608 20.1667 121.408 19.9H121.208L121.108 20.25C121.041 20.45 120.941 20.5333 120.808 20.5L120.408 20.6C120.608 20.6333 120.708 20.7333 120.708 20.9L120.408 21.9C120.441 21.8667 120.475 22.0167 120.508 22.35V22.5C120.508 22.8333 120.441 23.2667 120.308 23.8C120.208 23.9 120.141 24 120.108 24.1V24.55C120.108 24.65 120.108 24.75 120.108 24.85C120.141 24.95 120.141 25.0667 120.108 25.2C120.108 25.2667 120.091 25.3333 120.058 25.4C120.058 25.4667 120.058 25.5333 120.058 25.6C120.058 25.8 120.108 25.95 120.208 26.05C120.308 26.4167 120.341 26.8 120.308 27.2C120.241 27.2667 120.175 27.3667 120.108 27.5C120.041 27.6 119.975 27.7167 119.908 27.85L120.158 28.45C120.158 28.5167 120.141 28.5667 120.108 28.6C119.908 28.6 119.775 28.6167 119.708 28.65C119.908 28.9833 120.008 29.1833 120.008 29.25L119.858 29.9C119.825 29.9333 119.791 29.9667 119.758 30C119.725 30.0333 119.691 30.0833 119.658 30.15V30.2L119.808 30.8C119.808 31.0333 119.641 31.1 119.308 31V31.2C119.475 31.2667 119.658 31.4167 119.858 31.65C119.825 31.8833 119.808 32.1667 119.808 32.5C119.808 32.8 119.808 33.1333 119.808 33.5C119.875 33.6 119.991 33.8167 120.158 34.15C120.225 34.15 120.358 34.1833 120.558 34.25C120.525 34.35 120.525 34.45 120.558 34.55H120.858ZM117.658 24.15L118.058 24C118.158 23.8333 118.208 23.65 118.208 23.45C118.275 23.3833 118.241 23.3 118.108 23.2L117.808 23.45H117.708C117.608 23.25 117.491 23.15 117.358 23.15C117.225 23.15 117.158 23.25 117.158 23.45C117.158 23.65 117.191 23.7833 117.258 23.85L117.658 24.15ZM124.908 27.75L125.058 27.65C125.058 27.5833 125.041 27.5333 125.008 27.5L124.908 27.75ZM116.958 30.05L116.908 29.5C116.841 29.5667 116.775 29.6833 116.708 29.85C116.708 29.9167 116.791 29.9833 116.958 30.05ZM125.258 34.15C125.391 34.2167 125.475 34.2 125.508 34.1C125.475 34.0667 125.441 34.0333 125.408 34C125.408 33.9667 125.375 33.9333 125.308 33.9L125.258 34.15ZM126.408 34.75C126.508 34.6167 126.525 34.5167 126.458 34.45L126.108 34.5C126.141 34.5333 126.141 34.6167 126.108 34.75H126.408ZM117.208 37.25C117.308 37.25 117.408 37.2 117.508 37.1V36.75L117.208 36.6C117.041 36.6 116.958 36.7167 116.958 36.95C116.925 37.15 117.008 37.25 117.208 37.25ZM135.2 39.05C135.167 38.9833 135.117 38.9167 135.05 38.85C134.984 38.8167 134.917 38.7667 134.85 38.7C134.65 38.5667 134.434 38.4667 134.2 38.4C134.167 38.4333 134.067 38.4833 133.9 38.55L133.55 38.4C133.35 38.3 133.217 38.25 133.15 38.25L132.7 38.35C132.6 38.35 132.367 38.2 132 37.9C131.834 37.7333 131.684 37.5833 131.55 37.45C131.45 37.3167 131.384 37.2 131.35 37.1C131.35 37.0667 131.317 37.05 131.25 37.05L131.05 37.1C130.984 37.1 130.917 37.05 130.85 36.95C130.817 36.8833 130.784 36.8 130.75 36.7C130.717 36.5667 130.667 36.4333 130.6 36.3C130.567 36.2333 130.417 36.1167 130.15 35.95C130.117 35.95 130.067 35.85 130 35.65C129.867 35.6167 129.8 35.55 129.8 35.45L129.95 35.2C130.017 35.1 130.05 34.9833 130.05 34.85C130.05 34.6833 129.984 34.5333 129.85 34.4C129.684 34.1667 129.6 33.9833 129.6 33.85C129.667 33.7833 129.717 33.7 129.75 33.6C129.784 33.4667 129.834 33.3333 129.9 33.2C129.9 33.2 129.834 33.0833 129.7 32.85C129.467 32.4833 129.367 32.1833 129.4 31.95C129.4 31.9167 129.534 31.7667 129.8 31.5L129.5 31.25C129.5 31.2167 129.484 31.1833 129.45 31.15V30.65C129.45 30.5833 129.45 30.5167 129.45 30.45C129.45 30.3833 129.467 30.3 129.5 30.2L129.75 29.9C129.684 29.7 129.684 29.5167 129.75 29.35C129.784 29.3167 129.817 29.2833 129.85 29.25C129.884 29.2167 129.917 29.1833 129.95 29.15C129.917 29.1167 129.834 29.1 129.7 29.1L129.6 28.3V28.15C129.6 27.75 129.7 27.5833 129.9 27.65L130.25 27.7L130.35 27.65C130.317 27.5167 130.184 27.4167 129.95 27.35C129.784 27.2833 129.7 27.2167 129.7 27.15L129.9 25.9C129.967 25.9 130.017 25.8333 130.05 25.7L129.95 25.35C129.884 25.05 129.834 24.8833 129.8 24.85C129.867 24.7833 129.95 24.7167 130.05 24.65C130.15 24.5833 130.234 24.4833 130.3 24.35C130.3 24.3167 130.2 24.1333 130 23.8C129.9 23.6333 129.85 23.4333 129.85 23.2C129.917 23.1333 129.967 23.0333 130 22.9C130.067 22.7667 130.134 22.6167 130.2 22.45C130.2 22.2167 130.2 21.9667 130.2 21.7C130.234 21.4 130.267 21.0667 130.3 20.7C130.4 20.6 130.467 20.5 130.5 20.4C130.6 19.8 130.634 19.3833 130.6 19.15C130.734 19.1833 130.85 19.15 130.95 19.05L131 18.65C131.2 18.5833 131.3 18.4667 131.3 18.3C131.367 18 131.4 17.85 131.4 17.85C131.934 17.2167 132.267 16.9 132.4 16.9H132.45V16.95H132.55C132.617 16.95 132.667 16.8833 132.7 16.75L133.25 16.55C133.784 16.9833 134.05 17.1167 134.05 16.95V16.65C134.05 16.5833 134.034 16.5167 134 16.45C134 16.3833 134 16.3333 134 16.3V16.1C134.4 15.8 134.634 15.65 134.7 15.65L135 15.75L135.55 15.65C135.817 16.0167 136.017 16.2 136.15 16.2C136.25 16.2 136.367 16.1333 136.5 16C136.667 15.8 136.767 15.7 136.8 15.7L137.2 15.4C137.2 15.5333 137.267 15.6667 137.4 15.8L137.75 15.55C137.784 15.6833 137.917 15.8333 138.15 16L138.35 15.95H138.55L138.75 15.8C138.817 15.8333 138.917 15.8667 139.05 15.9C139.184 15.9333 139.317 15.9667 139.45 16C139.55 16.3333 139.834 16.5333 140.3 16.6L140.4 16.8C140.434 16.7667 140.534 16.75 140.7 16.75C140.8 16.75 140.85 16.7833 140.85 16.85L141.25 17.7C141.317 17.6333 141.384 17.6 141.45 17.6C141.617 17.6 141.717 17.7 141.75 17.9L141.9 18.55L142.25 18.75C142.317 18.8167 142.367 19.05 142.4 19.45C142.434 19.5167 142.467 19.6 142.5 19.7C142.534 19.7667 142.567 19.8667 142.6 20C142.567 20.1 142.55 20.35 142.55 20.75L142.8 21.05C142.967 21.1833 143.034 21.3333 143 21.5L142.95 21.8C142.917 21.8333 142.85 21.8667 142.75 21.9C142.684 21.9333 142.617 21.9833 142.55 22.05C142.45 22.15 142.334 22.1833 142.2 22.15C142.167 22.1833 142.15 22.25 142.15 22.35C142.35 22.55 142.55 22.6833 142.75 22.75L142.65 23.2C142.65 23.2 142.584 23.2333 142.45 23.3C142.35 23.4 142.267 23.45 142.2 23.45C142.034 23.6167 141.95 23.7667 141.95 23.9C141.95 24.1 142.167 24.2667 142.6 24.4L142.7 24.75C142.667 24.7833 142.617 24.9167 142.55 25.15V25.35C142.55 25.45 142.55 25.5667 142.55 25.7C142.55 25.8 142.567 25.9333 142.6 26.1L142.2 26.3C142.234 26.3333 142.267 26.4 142.3 26.5C142.334 26.6 142.384 26.7167 142.45 26.85C142.584 27.0167 142.65 27.1333 142.65 27.2L142.55 27.95C142.484 27.8833 142.384 27.85 142.25 27.85H142.1L142 28.05C142 28.05 142.084 28.1667 142.25 28.4C142.417 28.6333 142.5 28.7667 142.5 28.8C142.5 28.9667 142.434 29.0667 142.3 29.1C142.134 29.1667 142.05 29.2667 142.05 29.4C142.05 29.3667 142.1 29.4667 142.2 29.7C142.267 29.7333 142.267 29.8333 142.2 30C142.2 30 142.167 30.0333 142.1 30.1C142.167 30.5333 142.217 30.9 142.25 31.2C142.284 31.4667 142.3 31.6333 142.3 31.7C142.267 31.8 142.234 31.9333 142.2 32.1C142.167 32.2333 142.117 32.3833 142.05 32.55L142.15 32.95L142.1 34.6L141.5 35.6L141.3 36.35C141.234 36.4167 141.167 36.45 141.1 36.45C141.067 36.4167 141.017 36.4 140.95 36.4C140.884 36.4 140.767 36.4667 140.6 36.6V37.1C139.834 37.8333 139.4 38.1833 139.3 38.15L139.1 38.1C139.134 38.1 138.7 38.25 137.8 38.55C137.767 38.5833 137.734 38.6167 137.7 38.65C137.667 38.7167 137.617 38.8 137.55 38.9H137.4L137.05 38.8C136.95 38.8 136.617 38.8667 136.05 39L135.6 38.85C135.6 38.85 135.467 38.9167 135.2 39.05ZM133.15 18.6C133.184 18.6 133.15 18.5333 133.05 18.4L132.9 18.5C132.934 18.5333 132.967 18.55 133 18.55C133.067 18.55 133.117 18.5667 133.15 18.6ZM139.05 19L139.25 18.85C139.217 18.7167 139.134 18.6667 139 18.7L139.05 19ZM133.15 19.4C133.184 19.3333 133.167 19.2667 133.1 19.2C133.034 19.1333 132.967 19.1333 132.9 19.2C132.9 19.2667 132.984 19.3333 133.15 19.4ZM135.75 34.55C135.784 34.5167 135.967 34.4167 136.3 34.25C136.567 34.15 136.684 34.1 136.65 34.1H136.6C136.634 34.1 136.65 34.1 136.65 34.1L136.95 34.2C137.017 34.2 137.1 34.1333 137.2 34C137.034 33.7667 136.95 33.5833 136.95 33.45L137.05 33C137.117 32.9333 137.167 32.9 137.2 32.9L137.3 33C137.267 33.1 137.267 33.2167 137.3 33.35L137.5 33.2V32.9L137.15 32.2C137.284 32.1333 137.417 32.0333 137.55 31.9C137.384 31.5 137.317 31.1833 137.35 30.95L137.4 30.6C137.434 30.4667 137.45 30.3667 137.45 30.3C137.45 30.2 137.45 30.1333 137.45 30.1C137.517 30.0333 137.617 29.9833 137.75 29.95C138.017 29.8833 138.15 29.7 138.15 29.4C138.15 29.3333 138.1 29.3 138 29.3C137.934 29.3 137.85 29.2333 137.75 29.1C137.717 29.0667 137.65 29.05 137.55 29.05C137.384 28.7833 137.3 28.5833 137.3 28.45C137.367 27.9833 137.417 27.7833 137.45 27.85C137.55 27.85 137.6 27.5833 137.6 27.05C137.667 26.55 137.667 26.2167 137.6 26.05C137.534 25.7833 137.484 25.65 137.45 25.65V25.7C137.45 25.6667 137.45 25.65 137.45 25.65C137.484 25.5167 137.517 25.35 137.55 25.15C137.584 24.9167 137.617 24.6667 137.65 24.4C137.684 24.3667 137.717 24.3333 137.75 24.3C137.817 24.2667 137.867 24.2333 137.9 24.2C138 24.1 138.05 24.0167 138.05 23.95L137.9 23.75C137.767 23.6167 137.7 23.4167 137.7 23.15C137.8 23.05 137.867 22.9333 137.9 22.8L137.95 22.1C138.017 22.0333 138.067 21.9333 138.1 21.8C138.1 21.7667 138.1 21.7167 138.1 21.65C138.1 21.5833 138.067 21.5167 138 21.45L137.85 21.2C137.884 20.7 137.917 20.4667 137.95 20.5L137.75 20.45C137.684 20.4167 137.617 20.4 137.55 20.4C137.517 20.4 137.5 20.3833 137.5 20.35C137.367 20.1833 137.267 20.1333 137.2 20.2L136.85 20.3C136.684 20.3 136.5 20.1667 136.3 19.9H136.1L136 20.25C135.934 20.45 135.834 20.5333 135.7 20.5L135.3 20.6C135.5 20.6333 135.6 20.7333 135.6 20.9L135.3 21.9C135.334 21.8667 135.367 22.0167 135.4 22.35V22.5C135.4 22.8333 135.334 23.2667 135.2 23.8C135.1 23.9 135.034 24 135 24.1V24.55C135 24.65 135 24.75 135 24.85C135.034 24.95 135.034 25.0667 135 25.2C135 25.2667 134.984 25.3333 134.95 25.4C134.95 25.4667 134.95 25.5333 134.95 25.6C134.95 25.8 135 25.95 135.1 26.05C135.2 26.4167 135.234 26.8 135.2 27.2C135.134 27.2667 135.067 27.3667 135 27.5C134.934 27.6 134.867 27.7167 134.8 27.85L135.05 28.45C135.05 28.5167 135.034 28.5667 135 28.6C134.8 28.6 134.667 28.6167 134.6 28.65C134.8 28.9833 134.9 29.1833 134.9 29.25L134.75 29.9C134.717 29.9333 134.684 29.9667 134.65 30C134.617 30.0333 134.584 30.0833 134.55 30.15V30.2L134.7 30.8C134.7 31.0333 134.534 31.1 134.2 31V31.2C134.367 31.2667 134.55 31.4167 134.75 31.65C134.717 31.8833 134.7 32.1667 134.7 32.5C134.7 32.8 134.7 33.1333 134.7 33.5C134.767 33.6 134.884 33.8167 135.05 34.15C135.117 34.15 135.25 34.1833 135.45 34.25C135.417 34.35 135.417 34.45 135.45 34.55H135.75ZM132.55 24.15L132.95 24C133.05 23.8333 133.1 23.65 133.1 23.45C133.167 23.3833 133.134 23.3 133 23.2L132.7 23.45H132.6C132.5 23.25 132.384 23.15 132.25 23.15C132.117 23.15 132.05 23.25 132.05 23.45C132.05 23.65 132.084 23.7833 132.15 23.85L132.55 24.15ZM139.8 27.75L139.95 27.65C139.95 27.5833 139.934 27.5333 139.9 27.5L139.8 27.75ZM131.85 30.05L131.8 29.5C131.734 29.5667 131.667 29.6833 131.6 29.85C131.6 29.9167 131.684 29.9833 131.85 30.05ZM140.15 34.15C140.284 34.2167 140.367 34.2 140.4 34.1C140.367 34.0667 140.334 34.0333 140.3 34C140.3 33.9667 140.267 33.9333 140.2 33.9L140.15 34.15ZM141.3 34.75C141.4 34.6167 141.417 34.5167 141.35 34.45L141 34.5C141.034 34.5333 141.034 34.6167 141 34.75H141.3ZM132.1 37.25C132.2 37.25 132.3 37.2 132.4 37.1V36.75L132.1 36.6C131.934 36.6 131.85 36.7167 131.85 36.95C131.817 37.15 131.9 37.25 132.1 37.25ZM146.143 38.1L145.493 37.9C145.393 37.8333 145.343 37.7667 145.343 37.7C145.41 37.6 145.41 37.2667 145.343 36.7C145.376 36.6667 145.393 36.6167 145.393 36.55L145.643 36.35C145.643 36.25 145.626 36.1667 145.593 36.1L145.543 35.9C145.576 35.9 145.643 35.8167 145.743 35.65C145.776 35.5167 145.843 35.45 145.943 35.45C146.143 35.2833 146.243 35.1333 146.243 35C146.243 34.6 146.06 34.45 145.693 34.55L145.493 34.6C145.526 34.5333 145.543 34.4667 145.543 34.4C145.543 34.3333 145.56 34.25 145.593 34.15L145.343 33.75C145.343 33.7167 145.343 33.6667 145.343 33.6C145.343 33.5333 145.36 33.4333 145.393 33.3L145.343 33.1C145.343 33.0667 145.326 33.05 145.293 33.05C145.26 33.0167 145.243 32.9833 145.243 32.95L145.393 32.45C145.493 32.1833 145.543 32.0333 145.543 32L145.393 31.7C145.393 31.5333 145.376 31.3167 145.343 31.05C145.343 30.75 145.326 30.4333 145.293 30.1L145.093 29.55V29.4C145.093 29.3 145.11 29.1667 145.143 29C145.21 28.8333 145.243 28.6333 145.243 28.4V28.35C145.243 28.2833 145.226 28.2167 145.193 28.15C145.193 28.05 145.176 27.9333 145.143 27.8L145.293 27.55C145.293 27.5167 145.276 27.4833 145.243 27.45L145.143 27.1C145.076 26.9333 145.093 26.7667 145.193 26.6L145.393 26.25L145.243 26.05V25.7C145.243 25.5667 145.226 25.4333 145.193 25.3C145.193 25.1333 145.193 24.9667 145.193 24.8L144.993 24.05C145.026 23.95 145.043 23.8333 145.043 23.7C145.043 23.5333 145.06 23.3667 145.093 23.2L145.343 22.9C145.11 22.7667 144.96 22.5333 144.893 22.2C144.893 22.0667 144.976 21.9167 145.143 21.75C145.31 21.65 145.393 21.55 145.393 21.45C145.393 21.35 145.343 21.2 145.243 21L145.443 20.85C145.376 20.8167 145.293 20.7667 145.193 20.7C145.093 20.6333 144.976 20.5667 144.843 20.5L145.243 20.05C145.043 19.95 144.943 19.6 144.943 19L144.543 16.7V15.45C144.543 15.2833 144.526 15.2 144.493 15.2L144.393 14.85C144.393 14.65 144.426 14.45 144.493 14.25C144.493 14.1833 144.543 14.1333 144.643 14.1C144.71 14.0333 144.743 13.9833 144.743 13.95C144.743 13.95 144.71 13.8833 144.643 13.75C144.543 13.65 144.493 13.5833 144.493 13.55C144.526 13.4833 144.543 13.3333 144.543 13.1L144.893 13.15C144.926 13.05 144.943 12.85 144.943 12.55L144.593 12.4C144.626 12.3667 144.643 12.25 144.643 12.05L144.393 9.85L144.543 9.45L144.343 9.2L144.193 8.65C144.193 8.41667 144.326 8.11666 144.593 7.75H144.843C144.976 7.98333 145.093 8.1 145.193 8.1C145.26 8.1 145.36 8.03333 145.493 7.9C145.626 7.76667 145.726 7.7 145.793 7.7L146.193 7.9C146.426 8.03333 146.56 8.1 146.593 8.1C146.626 8.06666 146.66 8.03333 146.693 8C146.726 7.96667 146.776 7.93333 146.843 7.9L147.043 7.95C147.11 7.98333 147.176 8 147.243 8C147.31 8 147.493 7.96666 147.793 7.9C148.093 7.8 148.276 7.73333 148.343 7.7C148.71 7.7 148.943 7.71667 149.043 7.75C149.176 7.78333 149.36 8.06667 149.593 8.6L149.393 9.35C149.46 9.51667 149.51 9.73333 149.543 10C149.543 10.0667 149.543 10.15 149.543 10.25C149.543 10.3167 149.526 10.4167 149.493 10.55L149.393 11C149.393 11.0333 149.41 11.0833 149.443 11.15C149.476 11.1833 149.51 11.2667 149.543 11.4L149.643 11.8C149.643 11.8333 149.643 11.8833 149.643 11.95C149.643 11.9833 149.626 12.0667 149.593 12.2C149.593 12.3 149.526 12.4 149.393 12.5L149.743 13.25C149.743 13.2833 149.693 13.4333 149.593 13.7C149.693 13.9333 149.743 14.2 149.743 14.5C149.743 14.5 149.71 14.6 149.643 14.8C149.576 14.9667 149.56 15.0667 149.593 15.1L149.843 15.8C149.91 16.2333 149.96 16.5333 149.993 16.7C149.993 16.7 149.943 16.7833 149.843 16.95C149.743 17.0833 149.693 17.1833 149.693 17.25C149.626 17.25 149.493 17.2833 149.293 17.35C149.56 17.6833 149.81 18.1333 150.043 18.7L149.843 19.2C149.71 19.5 149.643 19.7333 149.643 19.9C149.71 19.9667 149.793 20.1167 149.893 20.35L149.943 20.75C150.043 20.85 150.11 20.95 150.143 21.05C150.143 21.05 150.093 21.1333 149.993 21.3L149.743 21.65C149.71 21.7167 149.693 21.8167 149.693 21.95L150.093 22.35L149.893 22.65C149.926 22.6167 149.96 22.7 149.993 22.9L149.943 23.35L150.093 23.75L149.893 24.7L150.343 25.45C150.343 25.5167 150.293 25.7 150.193 26L149.993 26.5C149.993 26.5667 150.093 27.0333 150.293 27.9C150.16 27.8 150.01 27.75 149.843 27.75C149.61 27.75 149.493 27.85 149.493 28.05C149.493 28.2833 149.626 28.4 149.893 28.4C149.926 28.4 149.993 28.45 150.093 28.55L150.243 28.65C150.21 28.8833 150.21 29.1 150.243 29.3L150.393 29.7C150.393 29.7 150.36 29.8 150.293 30L150.193 30.3C150.326 30.4333 150.41 30.5833 150.443 30.75V31.05C150.41 31.0833 150.31 31.1 150.143 31.1L150.193 31.4V31.75C150.06 31.6833 149.943 31.7 149.843 31.8V31.95L150.243 31.9C150.31 32.2333 150.36 32.4667 150.393 32.6L150.293 32.9C150.226 33.1 150.193 33.2 150.193 33.2C150.193 33.3 150.26 33.4 150.393 33.5L150.643 33.65C150.543 33.7833 150.526 34 150.593 34.3C150.593 34.3333 150.56 34.3833 150.493 34.45C150.426 34.5167 150.393 34.5833 150.393 34.65L150.643 36.15L150.693 37.7C150.693 37.9 150.593 38 150.393 38L150.193 37.9C150.126 37.8667 150.076 37.85 150.043 37.85C150.01 37.8167 149.976 37.8 149.943 37.8C149.876 37.7667 149.793 37.75 149.693 37.75C149.593 37.75 149.51 37.75 149.443 37.75C149.076 37.75 148.776 37.7667 148.543 37.8C148.31 37.8 148.16 37.7833 148.093 37.75L147.793 37.7C147.726 37.7333 147.643 37.7833 147.543 37.85C147.476 37.8833 147.376 37.9333 147.243 38H146.493C146.46 38.0333 146.41 38.05 146.343 38.05C146.276 38.05 146.21 38.0667 146.143 38.1ZM146.293 9.75C146.326 9.71667 146.36 9.7 146.393 9.7C146.426 9.7 146.46 9.68333 146.493 9.65C146.493 9.61667 146.46 9.56667 146.393 9.5L146.293 9.75ZM148.793 18.4C148.826 18.3667 148.793 18.3167 148.693 18.25C148.626 18.25 148.576 18.2667 148.543 18.3C148.61 18.3667 148.693 18.4 148.793 18.4ZM148.893 19.2C148.926 19.1333 148.91 19.0667 148.843 19C148.81 18.9667 148.726 18.9833 148.593 19.05C148.66 19.15 148.76 19.2 148.893 19.2ZM145.643 24.05C145.71 24.05 145.776 24.0167 145.843 23.95C145.91 23.8833 145.893 23.8167 145.793 23.75C145.693 23.75 145.643 23.85 145.643 24.05ZM148.243 27.55H148.393C148.593 27.55 148.743 27.4333 148.843 27.2C149.01 26.8667 149.093 26.7333 149.093 26.8C149.026 26.5 148.776 26.4167 148.343 26.55C148.176 26.6167 148.043 26.7167 147.943 26.85C147.876 26.95 147.843 27.0667 147.843 27.2C147.843 27.4333 147.976 27.55 148.243 27.55ZM146.893 37.1C146.926 37.0333 146.91 36.9667 146.843 36.9C146.81 36.8333 146.726 36.8667 146.593 37C146.66 37.1 146.76 37.1333 146.893 37.1Z" fill="black"/>
</svg>
