<svg width="31" height="31" viewBox="0 0 31 31" fill="none" xmlns="http://www.w3.org/2000/svg">
<circle cx="15.5" cy="15.5" r="15.5" fill="#5081E8" fill-opacity="0.33"/>
<path d="M15.4999 23.56C13.2499 23.56 11.344 22.7792 9.78238 21.2176C8.22075 19.6559 7.43994 17.7501 7.43994 15.5C7.43994 13.2499 8.22075 11.3441 9.78238 9.78244C11.344 8.22081 13.2499 7.44 15.4999 7.44C16.6586 7.44 17.7668 7.67928 18.8247 8.15785C19.8826 8.63641 20.7893 9.32067 21.5449 10.2106V7.44H23.5599V14.4925H16.5074V12.4775H20.7389C20.2016 11.5372 19.467 10.7983 18.535 10.261C17.6031 9.72367 16.5914 9.455 15.4999 9.455C13.8208 9.455 12.3935 10.0427 11.2181 11.2181C10.0426 12.3935 9.45494 13.8208 9.45494 15.5C9.45494 17.1792 10.0426 18.6065 11.2181 19.7819C12.3935 20.9573 13.8208 21.545 15.4999 21.545C16.7929 21.545 17.9599 21.1756 19.001 20.4368C20.0421 19.6979 20.7725 18.724 21.1923 17.515H23.3081C22.8379 19.2949 21.8808 20.7474 20.4367 21.8724C18.9926 22.9975 17.347 23.56 15.4999 23.56Z" fill="white"/>
</svg>
